<?xml version="1.0" standalone="no"?>
<!DOCTYPE svg PUBLIC "-//W3C//DTD SVG 20010904//EN"
 "http://www.w3.org/TR/2001/REC-SVG-20010904/DTD/svg10.dtd">
<svg version="1.0" xmlns="http://www.w3.org/2000/svg"
 width="1080.000000pt" height="1080.000000pt" viewBox="0 0 1080.000000 1080.000000"
 preserveAspectRatio="xMidYMid meet">

<g transform="translate(0.000000,1080.000000) scale(0.100000,-0.100000)"
fill="#000000" stroke="none">
<path d="M6960 10163 c-370 -26 -739 -52 -805 -58 -109 -8 -322 -24 -755 -55
-80 -6 -201 -15 -270 -20 -146 -11 -345 -25 -555 -40 -82 -6 -172 -13 -200
-15 -27 -2 -147 -11 -265 -20 -118 -8 -305 -22 -415 -30 -110 -8 -265 -19
-345 -25 -189 -14 -385 -28 -535 -40 -66 -5 -187 -14 -270 -20 -82 -6 -215
-15 -295 -21 -80 -5 -194 -14 -255 -19 -60 -5 -184 -14 -275 -20 -411 -27
-481 -38 -607 -96 -166 -76 -272 -234 -302 -454 -9 -65 -12 -797 -9 -3070 l3
-2985 27 -99 c49 -177 144 -347 326 -586 130 -170 155 -203 167 -216 6 -6 98
-125 205 -264 107 -139 220 -285 251 -324 30 -39 133 -172 229 -296 327 -423
415 -532 476 -589 94 -86 190 -131 341 -161 76 -15 397 -9 743 14 129 9 318
21 420 26 102 6 217 12 255 15 73 6 467 30 740 45 88 6 234 14 325 19 91 6
246 15 345 21 99 6 252 15 340 20 88 6 234 14 325 20 91 5 242 14 335 20 94 6
244 15 335 20 91 5 273 16 405 24 132 9 321 20 420 26 99 6 252 15 340 21 88
5 232 14 320 19 88 5 238 14 333 20 94 5 247 14 340 19 92 5 192 12 222 16
217 24 364 80 461 175 93 91 137 189 158 356 9 67 11 924 9 3429 l-3 3340 -28
61 c-31 67 -82 121 -197 207 -41 31 -79 60 -85 64 -5 5 -53 38 -105 74 -52 36
-165 115 -250 175 -85 60 -165 116 -176 124 -12 8 -91 63 -175 122 -85 59
-221 155 -304 213 -120 84 -385 269 -509 355 -12 8 -71 50 -131 92 -191 135
-219 154 -277 192 -31 20 -61 36 -66 36 -6 0 -12 4 -14 8 -7 16 -146 75 -233
98 -140 37 -307 50 -485 37z m340 -557 c174 -44 263 -91 525 -280 50 -36 123
-89 163 -118 41 -29 81 -59 90 -65 57 -43 160 -118 245 -178 55 -39 122 -87
150 -108 29 -20 78 -55 109 -77 65 -46 111 -101 106 -127 -5 -27 -37 -30 -523
-58 -242 -14 -471 -28 -510 -30 -38 -2 -151 -9 -250 -15 -99 -6 -216 -13 -260
-16 -44 -3 -154 -9 -245 -14 -158 -9 -398 -24 -580 -35 -47 -3 -164 -10 -260
-15 -96 -6 -247 -15 -335 -20 -88 -5 -241 -14 -340 -20 -99 -6 -214 -12 -256
-15 -42 -3 -153 -9 -245 -15 -322 -19 -499 -30 -579 -36 -44 -3 -159 -10 -255
-15 -281 -16 -494 -28 -655 -39 -82 -6 -250 -13 -373 -16 -347 -10 -390 7
-748 291 -125 99 -263 208 -308 243 -204 158 -309 243 -321 261 -23 36 -25 66
-7 91 42 56 109 72 377 90 88 6 221 15 295 20 74 6 194 15 265 20 72 5 193 14
270 20 77 6 298 21 490 35 193 14 406 29 475 35 69 5 195 14 280 20 151 10
267 19 535 39 72 6 202 15 290 21 88 6 216 15 285 20 303 22 436 32 755 55
187 13 396 29 465 35 69 5 195 14 280 20 85 6 173 12 195 14 81 8 352 -4 405
-18z m1931 -1644 c56 -37 73 -56 101 -117 l23 -50 0 -2915 c0 -2841 0 -2916
-19 -2973 -12 -37 -35 -76 -62 -106 -76 -85 -144 -105 -404 -120 -102 -6 -261
-16 -355 -21 -335 -20 -863 -51 -1035 -60 -231 -13 -333 -18 -525 -30 -88 -5
-248 -14 -355 -20 -107 -6 -260 -15 -340 -20 -80 -5 -237 -14 -350 -20 -113
-6 -275 -15 -360 -20 -238 -15 -473 -29 -605 -35 -66 -3 -133 -8 -150 -10 -16
-2 -93 -7 -170 -10 -77 -3 -167 -8 -200 -11 -58 -5 -224 -14 -590 -34 -355
-19 -393 -21 -513 -31 -268 -20 -397 -3 -488 65 -71 53 -102 110 -123 230 -16
85 -15 5620 0 5718 14 91 37 144 84 190 65 64 134 77 522 98 103 6 262 15 353
20 91 5 245 14 343 20 97 5 256 15 352 20 96 6 253 14 348 20 94 5 249 14 342
20 94 5 251 14 350 20 99 5 254 14 345 20 91 5 318 19 505 30 187 11 419 24
515 30 225 14 457 27 695 40 105 6 260 15 345 20 85 5 241 14 345 20 105 6
260 15 345 20 85 5 209 12 275 15 65 3 121 8 124 10 2 3 68 5 146 5 138 0 142
-1 186 -28z"/>
<path d="M3300 6824 l0 -77 218 4 217 4 7 -85 c10 -113 60 -2977 62 -3525 l1
-430 -150 -6 c-166 -6 -202 -15 -264 -60 -47 -34 -77 -90 -87 -163 l-7 -46
872 0 871 0 0 28 c0 53 -51 134 -110 174 -66 44 -114 55 -280 62 -83 4 -129
10 -138 19 -16 17 -26 393 -43 1650 -9 675 -10 920 -1 929 21 21 37 -1 76
-103 23 -60 99 -211 179 -354 77 -137 229 -410 337 -605 109 -195 281 -505
383 -688 102 -184 203 -354 223 -379 84 -102 190 -145 362 -145 128 0 188 16
263 68 76 52 95 83 389 619 79 143 155 283 170 310 15 28 67 122 115 210 167
303 248 450 359 650 61 110 130 241 153 290 87 185 119 240 139 240 17 0 20
-12 26 -120 11 -178 34 -2129 28 -2350 l-5 -190 -195 -11 c-231 -14 -270 -25
-378 -112 -45 -36 -97 -124 -88 -148 5 -12 113 -14 718 -14 392 0 777 3 856 7
l142 6 0 32 c0 41 -44 108 -112 171 -64 58 -108 74 -201 74 -58 0 -68 3 -81
23 -12 18 -17 215 -30 1162 -9 627 -21 1510 -28 1963 -6 452 -9 825 -6 828 3
3 109 6 234 7 l229 2 3 78 3 77 -528 -1 c-290 0 -555 -5 -587 -10 -121 -20
-212 -89 -281 -214 -49 -90 -342 -623 -563 -1025 -107 -195 -207 -377 -222
-405 -90 -163 -431 -785 -473 -862 -28 -51 -53 -93 -56 -93 -3 0 -24 33 -45
73 -22 39 -131 236 -244 437 -113 201 -334 597 -492 880 -650 1165 -607 1093
-678 1145 -96 71 -76 68 -699 73 l-563 3 0 -77z"/>
</g>
</svg>
